
<?xml version="1.0" standalone="no"?>
<!DOCTYPE svg PUBLIC "-//W3C//DTD SVG 20010904//EN"
 "http://www.w3.org/TR/2001/REC-SVG-20010904/DTD/svg10.dtd">
<svg version="1.0" xmlns="http://www.w3.org/2000/svg"
 width="710.000000pt" height="140.000000pt" viewBox="0 0 710.000000 140.000000"
 preserveAspectRatio="xMidYMid meet">

<g transform="translate(0.000000,140.000000) scale(0.100000,-0.100000)"
fill="#000000" stroke="none">
<path d="M101 1216 c-18 -21 -2 -46 28 -46 36 0 53 18 40 42 -11 21 -52 24
-68 4z"/>
<path d="M241 1211 c-18 -33 8 -40 154 -43 116 -3 140 -6 148 -20 8 -12 7 -21
-2 -32 -12 -14 -46 -16 -246 -16 -206 0 -234 -2 -239 -16 -14 -35 12 -44 128
-44 105 0 136 -7 136 -31 0 -23 -35 -39 -85 -39 -58 0 -76 -17 -49 -45 13 -13
60 -15 327 -14 172 0 383 4 470 7 l159 7 39 42 c36 40 39 46 39 103 0 56 -3
64 -38 101 -24 26 -51 43 -77 49 -22 5 -223 10 -447 10 -390 0 -408 -1 -417
-19z m602 -63 c8 -12 7 -21 -2 -32 -11 -13 -35 -16 -121 -16 -119 0 -142 9
-120 50 10 19 18 20 122 18 91 -2 113 -6 121 -20z m-316 -124 c12 -33 -11 -49
-74 -52 -66 -3 -90 11 -78 48 6 18 15 20 76 20 55 0 71 -3 76 -16z"/>
<path d="M4042 1029 c-99 -15 -170 -46 -223 -99 -59 -59 -79 -120 -79 -240 0
-120 20 -181 79 -240 74 -74 201 -110 391 -110 248 0 393 62 451 193 19 43 23
69 23 157 0 88 -4 114 -23 157 -45 103 -139 161 -295 182 -90 13 -234 12 -324
0z m377 -145 c51 -15 94 -53 110 -97 6 -16 11 -59 11 -97 0 -116 -35 -169
-130 -197 -69 -21 -310 -23 -388 -4 -96 24 -142 91 -142 206 1 131 59 189 204
205 92 11 276 2 335 -16z"/>
<path d="M2570 690 l0 -340 70 0 70 0 2 260 3 261 158 -191 157 -190 54 0 54
0 158 191 159 192 3 -262 2 -261 70 0 70 0 0 340 0 340 -84 0 c-70 0 -88 -3
-114 -22 -17 -13 -94 -101 -171 -196 -77 -95 -144 -172 -148 -172 -4 1 -75 83
-156 183 -82 100 -158 187 -170 194 -12 7 -59 12 -104 13 l-83 0 0 -340z"/>
<path d="M4820 690 l0 -341 338 3 c327 3 338 4 387 26 118 54 158 134 158 312
0 178 -40 258 -158 312 -49 22 -60 23 -387 26 l-338 3 0 -341z m659 187 c60
-21 76 -54 79 -171 5 -131 -9 -168 -70 -196 -39 -18 -67 -20 -285 -20 l-243 0
0 200 0 200 243 -1 c160 0 253 -4 276 -12z"/>
<path d="M5850 690 l0 -340 70 0 70 0 0 340 0 340 -70 0 -70 0 0 -340z"/>
<path d="M6160 691 l0 -341 70 0 70 0 0 271 0 270 23 -6 c45 -14 69 -39 204
-213 225 -289 256 -313 426 -320 l97 -4 0 341 0 341 -70 0 -70 0 -2 -267 -3
-268 -25 3 c-45 6 -68 30 -201 209 -215 291 -244 313 -416 321 l-103 5 0 -342z"/>
<path d="M101 836 c-19 -23 -2 -46 34 -46 36 0 48 15 33 43 -10 20 -51 23 -67
3z"/>
<path d="M241 832 c-19 -36 0 -41 148 -44 121 -3 145 -6 154 -20 8 -12 7 -21
-2 -32 -12 -14 -46 -16 -241 -16 -190 0 -230 -2 -240 -15 -10 -12 -10 -18 0
-30 10 -12 37 -15 125 -15 90 0 115 -3 126 -16 24 -29 -1 -49 -67 -52 -62 -3
-79 -15 -63 -44 9 -17 33 -18 377 -17 202 0 416 4 476 8 l109 7 40 43 c39 42
39 44 35 107 -4 59 -7 68 -41 101 -36 36 -37 37 -144 44 -59 4 -260 8 -445 8
-315 1 -338 0 -347 -17z m602 -64 c8 -12 7 -21 -2 -32 -11 -13 -35 -16 -121
-16 -119 0 -142 9 -120 50 10 19 18 20 122 18 91 -2 113 -6 121 -20z m-316
-124 c3 -9 2 -24 -4 -33 -15 -23 -131 -23 -146 1 -20 31 8 48 80 48 50 0 65
-4 70 -16z"/>
<path d="M186 455 c-27 -28 -9 -45 49 -45 50 0 85 -16 85 -39 0 -24 -31 -31
-136 -31 -116 0 -142 -9 -128 -44 5 -14 33 -16 239 -16 200 0 234 -2 246 -16
9 -11 10 -20 2 -32 -9 -14 -33 -17 -154 -20 -148 -3 -167 -8 -148 -44 9 -17
35 -18 417 -18 224 0 425 5 447 10 26 6 53 23 78 49 34 37 37 45 37 101 0 57
-3 63 -39 103 l-39 42 -159 7 c-87 3 -298 7 -470 7 -267 1 -314 -1 -327 -14z
m337 -66 c22 -35 2 -49 -72 -49 -61 0 -70 2 -76 20 -12 37 12 51 78 48 42 -2
63 -8 70 -19z m320 -131 c8 -12 7 -21 -2 -32 -11 -13 -35 -16 -122 -16 -99 0
-109 2 -119 21 -9 15 -8 24 1 35 18 22 228 16 242 -8z"/>
<path d="M96 194 c-9 -22 11 -44 40 -44 28 0 49 31 32 48 -18 18 -65 15 -72
-4z"/>
</g>
</svg>
