<svg version="1.1" viewBox="0.0 0.0 1632.755905511811 537.5721784776903" fill="none" stroke="none" stroke-linecap="square" stroke-miterlimit="10" xmlns:xlink="http://www.w3.org/1999/xlink" xmlns="http://www.w3.org/2000/svg"><clipPath id="p.0"><path d="m0 0l1632.7559 0l0 537.5722l-1632.7559 0l0 -537.5722z" clip-rule="nonzero"/></clipPath><g clip-path="url(#p.0)"><path fill="#000000" fill-opacity="0.0" d="m0 0l1632.7559 0l0 537.5722l-1632.7559 0z" fill-rule="evenodd"/><path fill="#000000" fill-opacity="0.0" d="m557.88837 94.29396l1030.1731 0l0 343.87402l-1030.1731 0z" fill-rule="evenodd"/><path fill="#202020" d="m721.5531 294.14835q0 32.8125 -15.015625 52.875q-15.0 20.046875 -40.625 20.046875q-26.171875 0 -41.171875 -16.609375l0 69.203125l-24.578125 0l0 -198.95314l22.453125 0l1.1875 15.9375q15.015625 -18.59375 41.703125 -18.59375q25.90625 0 40.96875 19.53125q15.078125 19.51564 15.078125 54.312515l0 2.25zm-24.5625 -2.78125q0 -24.3125 -10.359375 -38.39064q-10.359375 -14.078125 -28.421875 -14.078125q-22.3125 0 -33.46875 19.79689l0 68.65625q11.015625 19.65625 33.734375 19.65625q17.65625 0 28.078125 -14.0q10.4375 -14.015625 10.4375 -41.640625zm144.49219 73.046875q-2.125 -4.25 -3.453125 -15.140625q-17.125 17.796875 -40.90625 17.796875q-21.25 0 -34.859375 -12.015625q-13.609375 -12.03125 -13.609375 -30.484375q0 -22.453125 17.0625 -34.859375q17.0625 -12.421875 48.015625 -12.421875l23.90625 0l0 -11.296875q0 -12.875015 -7.703125 -20.51564q-7.703125 -7.640625 -22.71875 -7.640625q-13.140625 0 -22.046875 6.640625q-8.890625 6.640625 -8.890625 16.07814l-24.703125 0q0 -10.76564 7.625 -20.781265q7.640625 -10.03125 20.71875 -15.875q13.09375 -5.84375 28.765625 -5.84375q24.828125 0 38.90625 12.421875q14.078125 12.40625 14.609375 34.187515l0 66.140625q0 19.796875 5.046875 31.484375l0 2.125l-25.765625 0zm-40.765625 -18.734375q11.546875 0 21.90625 -5.96875q10.359375 -5.984375 15.015625 -15.546875l0 -29.484375l-19.265625 0q-45.15625 0 -45.15625 26.4375q0 11.546875 7.703125 18.0625q7.703125 6.5 19.796875 6.5zm123.25 -124.968765l0.796875 18.0625q16.46875 -20.71875 43.03125 -20.71875q45.546875 0 45.953125 51.39064l0 94.96875l-24.578125 0l0 -95.09375q-0.125 -15.54689 -7.109375 -22.98439q-6.96875 -7.4375 -21.703125 -7.4375q-11.953125 0 -20.984375 6.375q-9.03125 6.375 -14.078125 16.73439l0 102.40625l-24.578125 0l0 -143.70314l23.25 0zm120.859375 70.656265q0 -33.078125 15.671875 -53.187515q15.671875 -20.125 41.03125 -20.125q25.234375 0 39.984375 17.265625l0 -74.90625l24.5625 0l0 204.00002l-22.578125 0l-1.1875 -15.40625q-14.75 18.0625 -41.046875 18.0625q-24.96875 0 -40.703125 -20.453125q-15.734375 -20.453125 -15.734375 -53.390625l0 -1.859375zm24.5625 2.78125q0 24.4375 10.09375 38.25q10.09375 13.8125 27.890625 13.8125q23.375 0 34.140625 -20.984375l0 -66.0q-11.03125 -20.32814 -33.875 -20.32814q-18.0625 0 -28.15625 13.953125q-10.09375 13.937515 -10.09375 41.29689zm194.44531 72.921875q-29.21875 0 -47.546875 -19.1875q-18.328125 -19.203125 -18.328125 -51.34375l0 -4.515625q0 -21.375 8.15625 -38.17189q8.171875 -16.8125 22.84375 -26.296875q14.6875 -9.5 31.8125 -9.5q28.03125 0 43.5625 18.46875q15.546875 18.453125 15.546875 52.843765l0 10.234375l-97.359375 0q0.53125 21.25 12.421875 34.328125q11.890625 13.078125 30.21875 13.078125q13.015625 0 22.046875 -5.3125q9.03125 -5.3125 15.796875 -14.078125l15.015625 11.6875q-18.0625 27.765625 -54.1875 27.765625zm-3.0625 -128.82814q-14.875 0 -24.96875 10.828125q-10.09375 10.812515 -12.484375 30.343765l71.984375 0l0 -1.859375q-1.0625 -18.734375 -10.09375 -29.01564q-9.03125 -10.296875 -24.4375 -10.296875zm156.99219 4.515625q-5.578125 -0.9375 -12.09375 -0.9375q-24.171875 0 -32.796875 20.593765l0 102.0l-24.578125 0l0 -143.70314l23.90625 0l0.40625 16.59375q12.078125 -19.25 34.265625 -19.25q7.171875 0 10.890625 1.859375l0 22.84375zm105.97656 121.656265q-2.125 -4.25 -3.453125 -15.140625q-17.125 17.796875 -40.90625 17.796875q-21.25 0 -34.859375 -12.015625q-13.609375 -12.03125 -13.609375 -30.484375q0 -22.453125 17.0625 -34.859375q17.0625 -12.421875 48.015625 -12.421875l23.90625 0l0 -11.296875q0 -12.875015 -7.703125 -20.51564q-7.703125 -7.640625 -22.71875 -7.640625q-13.140625 0 -22.046875 6.640625q-8.890625 6.640625 -8.890625 16.07814l-24.703125 0q0 -10.76564 7.625 -20.781265q7.640625 -10.03125 20.71875 -15.875q13.09375 -5.84375 28.765625 -5.84375q24.828125 0 38.90625 12.421875q14.078125 12.40625 14.609375 34.187515l0 66.140625q0 19.796875 5.046875 31.484375l0 2.125l-25.765625 0zm-40.765625 -18.734375q11.546875 0 21.90625 -5.96875q10.359375 -5.984375 15.015625 -15.546875l0 -29.484375l-19.265625 0q-45.15625 0 -45.15625 26.4375q0 11.546875 7.703125 18.0625q7.703125 6.5 19.796875 6.5z" fill-rule="nonzero"/><path fill="#2ed593" d="m433.77322 188.53044l-144.62994 105.745285l0 31.38858l144.62994 -105.7453z" fill-rule="evenodd"/><path stroke="#2ed593" stroke-width="3.0" stroke-linejoin="round" stroke-linecap="butt" d="m433.77322 188.53044l-144.62994 105.745285l0 31.38858l144.62994 -105.7453z" fill-rule="evenodd"/><path fill="#2ed593" d="m141.28859 189.17224l147.2126 103.81995l0 33.313904l-147.2126 -103.819916z" fill-rule="evenodd"/><path stroke="#2ed593" stroke-width="3.0" stroke-linejoin="round" stroke-linecap="butt" d="m141.28859 189.17224l147.2126 103.81995l0 33.313904l-147.2126 -103.819916z" fill-rule="evenodd"/><path fill="#2ed593" d="m63.622047 266.67978l0 0c0 -123.53783 100.14721 -223.68503 223.68506 -223.68503l0 0c59.32495 0 116.22012 23.56675 158.16919 65.51583c41.949097 41.94909 65.51584 98.844246 65.51584 158.16919l0 0c0 123.53784 -100.14722 223.68506 -223.68503 223.68506l0 0c-123.53784 0 -223.68506 -100.14722 -223.68506 -223.68506zm33.042755 0l0 0c0 105.28885 85.35346 190.6423 190.6423 190.6423c105.28882 0 190.64227 -85.353455 190.64227 -190.6423l0 0c0 -105.28882 -85.353455 -190.64227 -190.64227 -190.64227l0 0c-105.28883 0 -190.6423 85.353455 -190.6423 190.64227z" fill-rule="evenodd"/><path fill="#2ed593" d="m433.77322 250.5755l-144.62994 105.7453l0 31.38855l144.62994 -105.74527z" fill-rule="evenodd"/><path stroke="#2ed593" stroke-width="3.0" stroke-linejoin="round" stroke-linecap="butt" d="m433.77322 250.5755l-144.62994 105.7453l0 31.38855l144.62994 -105.74527z" fill-rule="evenodd"/><path fill="#2ed593" d="m141.93044 250.57547l147.2126 103.819916l0 33.313934l-147.2126 -103.819916z" fill-rule="evenodd"/><path stroke="#2ed593" stroke-width="3.0" stroke-linejoin="round" stroke-linecap="butt" d="m141.93044 250.57547l147.2126 103.819916l0 33.313934l-147.2126 -103.819916z" fill-rule="evenodd"/></g></svg>