<svg width="400" height="400" viewBox="0 0 400 400" fill="none" xmlns="http://www.w3.org/2000/svg">
<path d="M400 0H0V400H400V0Z" fill="#A065FF"/>
<path d="M233.28 334.72C232.323 334.72 231.383 334.462 230.56 333.973L200 315.68L169.44 333.973C168.629 334.441 167.71 334.688 166.773 334.688C165.837 334.688 164.918 334.441 164.107 333.973L101.333 295.68C100.565 295.2 99.9313 294.531 99.4927 293.738C99.0541 292.945 98.8249 292.053 98.8267 291.147V252.747L69.3334 236.16C68.5096 235.697 67.8236 235.023 67.3457 234.208C66.8677 233.393 66.615 232.465 66.6134 231.52V168.48C66.615 167.535 66.8677 166.607 67.3457 165.792C67.8236 164.977 68.5096 164.303 69.3334 163.84L98.6667 147.253V108.853C98.6558 107.938 98.8807 107.035 99.3197 106.232C99.7587 105.428 100.397 104.752 101.173 104.267L163.893 66.0265C164.704 65.5584 165.624 65.312 166.56 65.312C167.496 65.312 168.416 65.5584 169.227 66.0265L199.787 84.3199L230.347 66.0265C231.158 65.5584 232.077 65.312 233.013 65.312C233.95 65.312 234.869 65.5584 235.68 66.0265L298.667 104.32C299.445 104.794 300.089 105.459 300.538 106.253C300.986 107.047 301.223 107.942 301.227 108.853V147.253L330.667 163.84C331.491 164.303 332.177 164.977 332.655 165.792C333.132 166.607 333.385 167.535 333.387 168.48V231.52C333.385 232.465 333.132 233.393 332.655 234.208C332.177 235.023 331.491 235.697 330.667 236.16L301.333 252.747V291.147C301.339 292.067 301.106 292.973 300.657 293.777C300.209 294.581 299.56 295.255 298.773 295.733L236.053 333.973C235.208 334.454 234.253 334.711 233.28 334.72V334.72ZM205.28 306.453L233.28 323.147L290.667 288V249.653C290.668 248.708 290.921 247.781 291.399 246.965C291.877 246.15 292.563 245.476 293.387 245.013L317.013 231.573L297.173 220.64C294.524 222.916 291.175 224.217 287.683 224.327C284.192 224.438 280.768 223.35 277.98 221.246C275.191 219.142 273.207 216.147 272.355 212.76C271.504 209.372 271.837 205.795 273.299 202.622C274.761 199.45 277.264 196.873 280.392 195.319C283.521 193.765 287.087 193.329 290.498 194.081C293.909 194.834 296.96 196.731 299.145 199.456C301.329 202.182 302.516 205.573 302.507 209.067C302.559 209.812 302.559 210.561 302.507 211.307L322.88 222.507V171.573L293.333 154.987C292.51 154.523 291.824 153.85 291.346 153.035C290.868 152.219 290.615 151.292 290.613 150.347V136H275.893C274.642 139.38 272.242 142.212 269.114 144.001C265.985 145.789 262.327 146.421 258.78 145.786C255.233 145.15 252.022 143.287 249.709 140.523C247.396 137.76 246.129 134.27 246.129 130.667C246.129 127.063 247.396 123.574 249.709 120.81C252.022 118.046 255.233 116.183 258.78 115.547C262.327 114.912 265.985 115.544 269.114 117.333C272.242 119.122 274.642 121.954 275.893 125.333H290.667V112L233.227 76.8532L205.333 93.5466V152.213L234.987 169.387C237.732 167.32 241.095 166.241 244.53 166.324C247.965 166.408 251.271 167.648 253.913 169.845C256.555 172.042 258.378 175.067 259.086 178.43C259.794 181.792 259.346 185.295 257.815 188.371C256.284 191.447 253.759 193.916 250.649 195.378C247.539 196.839 244.027 197.208 240.682 196.425C237.336 195.641 234.353 193.751 232.216 191.06C230.079 188.369 228.913 185.036 228.907 181.6C228.902 180.525 229.01 179.453 229.227 178.4L197.333 160C196.527 159.535 195.857 158.866 195.389 158.062C194.921 157.257 194.672 156.344 194.667 155.413V93.5466L166.72 76.8532L141.28 92.3199V129.973H130.613V98.8265L109.333 112V147.413L136 162.507L162.667 147.413V120H173.333V150.347C173.332 151.292 173.079 152.219 172.601 153.035C172.123 153.85 171.437 154.523 170.613 154.987L141.28 171.573V196.96L170.667 216.16C171.418 216.642 172.036 217.304 172.465 218.087C172.893 218.87 173.119 219.748 173.12 220.64V238.56L194.453 225.973V203.36L166.453 186.667L171.787 177.493L202.667 195.68C203.453 196.158 204.102 196.832 204.551 197.636C204.999 198.44 205.232 199.346 205.227 200.267V269.6H229.707C230.956 266.248 233.343 263.442 236.451 261.672C239.559 259.901 243.19 259.28 246.71 259.915C250.23 260.55 253.414 262.402 255.707 265.148C258 267.893 259.255 271.356 259.253 274.933C259.031 278.38 257.661 281.654 255.361 284.232C253.062 286.81 249.966 288.544 246.566 289.157C243.167 289.771 239.66 289.229 236.604 287.618C233.549 286.006 231.12 283.418 229.707 280.267H205.173L205.28 306.453ZM144.427 309.333L166.72 322.933L194.72 306.24V238.347L135.093 273.44L129.76 264.213L162.667 244.8V223.467L136 206.027L106.133 222.773L100.8 213.44L130.773 196.64V171.573L104.107 156.48L77.4401 171.573V190.987L100.267 177.6L105.6 186.773L77.3334 203.36V228.373L104 243.467L130.987 227.467L136.32 236.64L109.333 252.64V288L133.333 302.88L161.173 286.507L161.493 286.987L162.773 286.24L168.107 295.413L144.427 309.333ZM244.107 269.813C243.187 269.803 242.285 270.066 241.515 270.569C240.745 271.073 240.142 271.793 239.782 272.64C239.423 273.487 239.323 274.422 239.496 275.325C239.669 276.229 240.107 277.061 240.754 277.715C241.4 278.369 242.227 278.816 243.128 279C244.03 279.183 244.966 279.094 245.817 278.745C246.668 278.395 247.395 277.801 247.908 277.037C248.42 276.272 248.693 275.373 248.693 274.453C248.652 273.265 248.15 272.139 247.295 271.313C246.439 270.487 245.296 270.026 244.107 270.027V269.813ZM287.2 204.213C286.282 204.213 285.385 204.485 284.622 204.995C283.859 205.505 283.265 206.23 282.913 207.078C282.562 207.925 282.47 208.858 282.649 209.758C282.828 210.658 283.27 211.485 283.919 212.134C284.568 212.783 285.395 213.225 286.295 213.404C287.195 213.583 288.128 213.491 288.976 213.14C289.824 212.789 290.548 212.194 291.058 211.431C291.568 210.668 291.84 209.771 291.84 208.853C291.785 207.66 291.272 206.534 290.408 205.709C289.544 204.885 288.395 204.425 287.2 204.427V204.213ZM244.107 176.747C243.187 176.736 242.285 176.999 241.515 177.502C240.745 178.006 240.142 178.727 239.782 179.574C239.423 180.42 239.323 181.355 239.496 182.259C239.669 183.162 240.107 183.994 240.754 184.648C241.4 185.302 242.227 185.75 243.128 185.933C244.03 186.117 244.966 186.028 245.817 185.678C246.668 185.329 247.395 184.734 247.908 183.97C248.42 183.206 248.693 182.307 248.693 181.387C248.652 180.198 248.15 179.072 247.295 178.246C246.439 177.42 245.296 176.959 244.107 176.96V176.747ZM261.333 126.027C260.416 126.027 259.519 126.299 258.756 126.809C257.993 127.318 257.398 128.043 257.047 128.891C256.695 129.739 256.604 130.672 256.783 131.572C256.962 132.472 257.404 133.299 258.052 133.948C258.701 134.596 259.528 135.038 260.428 135.217C261.328 135.396 262.261 135.305 263.109 134.953C263.957 134.602 264.682 134.007 265.191 133.244C265.701 132.481 265.973 131.584 265.973 130.667C265.981 130.055 265.865 129.449 265.635 128.882C265.404 128.316 265.063 127.802 264.63 127.37C264.198 126.937 263.684 126.596 263.118 126.365C262.551 126.135 261.945 126.019 261.333 126.027V126.027Z" fill="white"/>
</svg>
