<svg id="Layer_1" data-name="Layer 1" xmlns="http://www.w3.org/2000/svg" viewBox="106 165.55 588.03 168.93"><defs><style>.cls-1{fill:#40009f;}</style></defs><title>flyte_lockup_on_light</title><path class="cls-1" d="M152.24,254.36S106,214.31,106,174.27c0,0,6.79-6.89,33.93-8.55l-.31,8.55C139.62,214.31,152.24,254.36,152.24,254.36Zm46.24-80.09s-6.8-6.89-33.92-8.55l.31,8.55c0,40-12.63,80.09-12.63,80.09s46.24-40.05,46.24-80.09ZM181.79,305.34l-7.55,4c15,22.68,24.36,25.11,24.36,25.11,34.68-20,46.24-80.09,46.24-80.09S216.47,285.32,181.79,305.34Zm-29.43-51a11,11,0,0,0-.23,2.62c0,4.25,1.27,13.94,9.79,31l7.24-4.54c34.69-20,75.68-29.11,75.68-29.11s-25.69-8.9-53.09-8.9c-13.7,0-27.83,2.23-39.39,8.9Zm121.69-50.8,7.24,4.54c8.53-17.1,9.79-26.78,9.79-31a11.34,11.34,0,0,0-.22-2.62c-11.57-6.68-25.69-8.9-39.4-8.9-27.4,0-53.09,8.89-53.09,8.89S239.37,183.53,274.05,203.56Zm-29.44,51c.85-.22,10.08-3.52,24.37-25.11l-7.56-4c-34.68-20-63.05-51-63.05-51s11.56,60.08,46.24,80.1Z"/><path d="M364.76,259.54v42.22H344V189.16h74.48V209H364.76v30.8h42.31v19.79Z"/><path d="M433.77,301.76V189.16h19.79v112.6Z"/><path d="M548.86,219.72l-35.23,87c-6.91,17.05-17.85,25.9-34.27,25.9a43,43,0,0,1-15.6-2.9V312.54a39.85,39.85,0,0,0,14,3.22,17.59,17.59,0,0,0,16.4-11.91l1.13-3.05-32.65-81.08h21.23l21.72,56.14,21.87-56.14Z"/><path d="M589.63,303.21c-18,0-31.69-11.74-31.69-34.26V194.79h19.79v24.93H609.1v18.5H577.73v31.85c0,11.26,7.4,16.09,16.4,16.09a31.57,31.57,0,0,0,16.74-5.31v17.54A54,54,0,0,1,589.63,303.21Z"/><path d="M694,268.14H637.86c.64,10.78,11.58,18,24.94,18,10.29,0,20.26-4.18,29-10v17.69c-9.17,6.6-20.75,9.33-31.37,9.33-25.58,0-42.31-17-42.31-42.79,0-25.41,16.57-42.31,39.9-42.31,22.52,0,36,15.45,36,40.38Zm-56-14.8H674.7c0-10.93-6.92-17.53-16.9-17.53C648,235.81,639,241.92,638,253.34Z"/></svg>