<svg
  viewBox="0 0 176.141 32.344"
  xmlns="http://www.w3.org/2000/svg"
  width="200"
  height="100"
>
  <path
    d="M105.243,10.888v0.023h-1.887v3.713h1.887c3.864,0,7.008,3.141,7.015,7.003 c-0.006,3.863-3.15,7.004-7.015,7.004c-3.868,0-7.015-3.147-7.015-7.015v-1.887h-3.713v1.887c0,5.915,4.812,10.728,10.728,10.728 c5.908,0,10.715-4.8,10.727-10.704h0.001c0-0.004,0-0.008,0-0.012l0-0.012C115.971,15.701,111.158,10.888,105.243,10.888z"
  ></path>
  <path
    d="M81.145,10.888c-4.674,0-8.477,3.803-8.477,8.478v12.468h3.713V19.366c0-2.627,2.138-4.765,4.765-4.765 c2.627,0,4.765,2.138,4.765,4.765v12.468h3.713V19.366C89.623,14.691,85.82,10.888,81.145,10.888z"
  ></path>
  <rect x="121.305" y="19.729" width="3.713" height="12.105"></rect>
  <path
    d="M52.612,21.616v-1.887h-2.659h-3.151c-0.759-4.205-3.975-7.563-8.105-8.532 c-0.093-0.023-0.187-0.045-0.282-0.065c0,0-0.011-0.002-0.016-0.003c-0.727-0.156-1.48-0.24-2.252-0.24v0.023h-1.786v3.713h1.887 c0.439,0,0.868,0.042,1.285,0.12c2.586,0.522,4.659,2.468,5.364,4.985h-6.61V22.9h12.691c0.637,5.312,5.168,9.444,10.648,9.444 v-3.713C55.759,28.631,52.612,25.484,52.612,21.616z"
  ></path>
  <path
    d="M67.767,17.931c-0.12-0.328-0.257-0.649-0.407-0.962c-0.679-1.407-1.656-2.644-2.848-3.628 c-0.133-0.109-0.268-0.216-0.405-0.319c-0.275-0.206-0.561-0.399-0.856-0.579c-1.622-0.987-3.525-1.555-5.559-1.555v0.023h-1.887 v3.713h1.887c2.857,0,5.319,1.718,6.412,4.174c0.042,0.095,0.082,0.19,0.12,0.287c0.017,0.044,0.036,0.087,0.052,0.131 c0.057,0.156,0.109,0.316,0.155,0.477c0.003,0.012,0.007,0.023,0.01,0.035h-6.608V22.9h10.264h0.323v-1.284 c0-0.924-0.117-1.822-0.338-2.678C67.993,18.596,67.888,18.26,67.767,17.931z"
  ></path>
  <path
    d="M31.068,21.616v-1.887h-3.713v1.887c0,5.915,4.812,10.728,10.728,10.728v-3.713 C34.215,28.631,31.068,25.484,31.068,21.616z"
  ></path>
  <polygon
    points="16.549,11.445 16.549,14.616 16.549,31.833 20.345,31.833 20.345,14.616 24.141,14.616 24.141,11.445 20.345,11.445"
  ></polygon>
  <path
    d="M160.334,21.616v-1.887h-3.713v1.887c0,5.915,4.812,10.728,10.728,10.728v-3.713 C163.481,28.631,160.334,25.484,160.334,21.616z"
  ></path>
  <path
    d="M165.413,10.888v0.023h-1.887v3.713h1.887c2.659,0,4.977,1.487,6.167,3.673 c0.002,0.004,0.004,0.008,0.007,0.013c0.086,0.158,0.164,0.321,0.238,0.486c0.043,0.097,0.084,0.194,0.122,0.292 c0.017,0.042,0.034,0.084,0.05,0.127c0.058,0.158,0.11,0.318,0.156,0.48c0.003,0.011,0.006,0.022,0.009,0.033h-6.608V22.9h10.264 h0.323v-1.284C176.141,15.701,171.329,10.888,165.413,10.888z"
  ></path>
  <path
    d="M142.678,10.894c-2.677,0-5.066,1.248-6.621,3.192c-1.555-1.944-3.944-3.192-6.621-3.192h-8.13v3.713h8.13 c2.627,0,4.765,2.138,4.765,4.765v12.462h3.713V19.371c0-2.627,2.138-4.765,4.765-4.765c2.627,0,4.765,2.138,4.765,4.765v12.462 h3.713V19.371C151.155,14.697,147.352,10.894,142.678,10.894z"
  ></path>
  <path
    d="M2.036,7.723v6.893v17.217h3.853V14.616H11.5v-3.172H5.889V7.723h0c0-1.556,1.266-2.941,2.823-2.941H11.5 V1.166H8.712C5.031,1.166,2.036,4.043,2.036,7.723z"
  ></path>
</svg> 