<svg width="325" height="45" viewBox="0 0 325 45" fill="none" xmlns="http://www.w3.org/2000/svg">
<path d="M26.0002 37.5C27.9002 38.7 28.4002 39.7 28.4002 41.2C28.4002 43.4 26.6002 45 24.2002 45H39.0002V30L26.0002 37.5Z" fill="#575A60"/>
<path d="M38.9996 0L28.5996 9L38.9996 15C38.9996 12.7 39.6996 11.8 40.9996 11.1C42.8996 10 45.1996 10.8 46.3996 12.8L38.9996 0Z" fill="#D80C28"/>
<path d="M39 15.1002C39 15.8002 39 16.4002 39 16.4002V45.0002L51.1 24.0002C51.6 23.1002 51.6 21.9002 51.1 21.0002L46.3 12.8002C45.1 10.7002 42.8 10.0002 40.9 11.1002C39.6 11.9002 39 12.8002 39 15.1002Z" fill="#6F7278"/>
<path d="M27.7002 38.9004C28.2002 39.6004 28.4002 40.3004 28.4002 41.2004C28.4002 43.4004 26.6002 45.0004 24.2002 45.0004H22.7002H33.0002L27.7002 38.9004Z" fill="#414449"/>
<path d="M7.7 14.5002C6.6 13.3002 6.4 11.4002 7.4 9.7002L0 22.5002L13 30.0002V20.6002L7.7 14.5002Z" fill="#AAAAAA"/>
<path d="M8.6002 15.2C8.3002 15 8.0002 14.8 7.7002 14.5L13.0002 20.6V15C11.0002 16.1 9.9002 16 8.6002 15.2Z" fill="#75777B"/>
<path d="M13.1001 14.9C13.7001 14.5 14.2001 14.3 14.2001 14.3L39.0001 0H14.7001C13.6001 0 12.7001 0.6 12.1001 1.5L7.40012 9.7C6.20012 11.8 6.70012 14.1 8.60012 15.2C9.90012 16 11.1001 16.1 13.1001 14.9Z" fill="#EB0A1E"/>
<path d="M26 7.5L28.6 9L39 0L26 7.5Z" fill="#980321"/>
<path d="M25.9 37.4C25.3 37 24.8 36.8 24.8 36.8L0 22.5L12.1 43.5C12.6 44.4 13.6 45 14.7 45H24.2C26.6 45 28.4 43.4 28.4 41.2C28.4 39.7 27.9 38.6 25.9 37.4Z" fill="#CCCCCC"/>
<path d="M95.6996 12.5L89.4996 32.4H85.2996L81.0996 19L76.9996 32.4H72.7996L66.5996 12.5H70.9996L74.8996 26.2L79.0996 12.5H83.1996L87.2996 26.2L91.1996 12.5H95.6996Z" fill="#444444"/>
<path d="M98.5 22.5C98.5 16.6 103.2 12 109 12C114.8 12 119.5 16.5 119.5 22.5C119.5 28.4 114.8 33 109 33C103.2 32.9 98.5 28.4 98.5 22.5ZM115.2 22.5C115.2 18.9 112.5 16.2 109 16.2C105.5 16.2 102.8 18.9 102.8 22.5C102.8 26.1 105.5 28.8 109 28.8C112.5 28.7 115.2 26.1 115.2 22.5Z" fill="#444444"/>
<path d="M142.1 12.5L134.3 32.4H129.3L121.5 12.5H126.2L131.8 27.6L137.3 12.5H142.1Z" fill="#444444"/>
<path d="M155 29.0004C157.4 29.0004 159.2 27.9004 160.1 26.5004L163.6 28.6004C161.8 31.3004 158.8 32.9004 154.9 32.9004C148.3 32.9004 144.1 28.4004 144.1 22.4004C144.1 16.5004 148.4 11.9004 154.6 11.9004C160.5 11.9004 164.6 16.7004 164.6 22.4004C164.6 23.0004 164.5 23.6004 164.4 24.2004H148.6C149.4 27.4004 151.9 29.0004 155 29.0004ZM160.3 20.8004C159.7 17.4004 157.2 15.9004 154.6 15.9004C151.4 15.9004 149.2 17.8004 148.6 20.8004H160.3Z" fill="#444444"/>
<path d="M188 20.2004V32.4004H183.7V20.6004C183.7 17.6004 181.9 16.0004 179.2 16.0004C176.4 16.0004 174.1 17.7004 174.1 21.7004V32.4004H169.8V12.5004H174.1V15.0004C175.4 12.9004 177.6 11.9004 180.3 11.9004C184.8 12.0004 188 15.0004 188 20.2004Z" fill="#444444"/>
<path d="M222.899 22.5C222.899 28.4 218.399 33 212.999 33C209.899 33 207.499 31.7 205.999 29.7V40.5H201.699V12.5H205.999V15.4C207.499 13.3 209.899 12 212.999 12C218.399 12 222.899 16.6 222.899 22.5ZM218.599 22.5C218.599 18.8 215.899 16.1 212.299 16.1C208.699 16.1 205.999 18.8 205.999 22.5C205.999 26.2 208.699 28.9 212.299 28.9C215.899 28.8 218.599 26.2 218.599 22.5Z" fill="#444444"/>
<path d="M228.199 3.40039H232.499V32.4004H228.199V3.40039Z" fill="#444444"/>
<path d="M258.899 12.5004V32.4004H254.599V29.5004C253.099 31.6004 250.699 32.9004 247.599 32.9004C242.199 32.9004 237.699 28.3004 237.699 22.4004C237.699 16.5004 242.199 11.9004 247.599 11.9004C250.699 11.9004 253.099 13.2004 254.599 15.2004V12.4004H258.899V12.5004ZM254.599 22.5004C254.599 18.8004 251.899 16.1004 248.299 16.1004C244.699 16.1004 241.999 18.8004 241.999 22.5004C241.999 26.2004 244.699 28.9004 248.299 28.9004C251.899 28.8004 254.599 26.2004 254.599 22.5004Z" fill="#444444"/>
<path d="M283.399 20.2004V32.4004H279.099V20.6004C279.099 17.6004 277.299 16.0004 274.599 16.0004C271.799 16.0004 269.499 17.7004 269.499 21.7004V32.4004H265.199V12.5004H269.499V15.0004C270.799 12.9004 272.999 11.9004 275.699 11.9004C280.199 12.0004 283.399 15.0004 283.399 20.2004Z" fill="#444444"/>
<path d="M299.2 29.0004C301.6 29.0004 303.4 27.9004 304.3 26.5004L307.8 28.6004C306 31.3004 303 32.9004 299.1 32.9004C292.5 32.9004 288.3 28.4004 288.3 22.4004C288.3 16.5004 292.6 11.9004 298.8 11.9004C304.7 11.9004 308.8 16.7004 308.8 22.4004C308.8 23.0004 308.7 23.6004 308.6 24.2004H292.8C293.5 27.4004 296 29.0004 299.2 29.0004ZM304.5 20.8004C303.9 17.4004 301.4 15.9004 298.8 15.9004C295.6 15.9004 293.4 17.8004 292.8 20.8004H304.5Z" fill="#444444"/>
<path d="M319.899 16.7004V26.2004C319.899 28.7004 321.599 28.7004 324.799 28.5004V32.4004C318.199 33.2004 315.599 31.4004 315.599 26.2004V16.7004H311.899V12.6004H315.599V8.20039L319.899 6.90039V12.5004H324.799V16.6004H319.899V16.7004Z" fill="#444444"/>
</svg>
