<?xml version="1.0" standalone="no"?>
<!DOCTYPE svg PUBLIC "-//W3C//DTD SVG 20010904//EN"
 "http://www.w3.org/TR/2001/REC-SVG-20010904/DTD/svg10.dtd">
<svg version="1.0" xmlns="http://www.w3.org/2000/svg"
 width="400.000000pt" height="400.000000pt" viewBox="0 0 400.000000 400.000000"
 preserveAspectRatio="xMidYMid meet">

<g transform="translate(0.000000,400.000000) scale(0.100000,-0.100000)"
fill="#707070" stroke="none">
<path d="M1785 3989 c-351 -37 -719 -185 -1010 -408 -90 -68 -258 -235 -335
-331 -325 -409 -481 -931 -430 -1441 62 -612 390 -1152 905 -1489 106 -69 316
-171 442 -214 467 -160 1015 -135 1458 67 249 114 431 243 625 443 223 230
360 457 460 764 76 230 94 351 94 620 0 269 -18 390 -94 620 -100 307 -237
534 -460 764 -152 157 -271 250 -442 349 -370 211 -791 300 -1213 256z m490
-265 c24 -10 46 -60 39 -89 -8 -31 -49 -65 -79 -65 -30 0 -71 34 -79 65 -7 27
15 80 36 88 19 8 64 8 83 1z m-292 -21 c50 -57 -10 -146 -75 -112 -12 6 -26
17 -30 23 -13 20 -8 69 9 88 21 23 75 24 96 1z m-309 -9 c19 -18 21 -65 4 -82
-7 -7 -26 -12 -43 -12 -37 0 -55 16 -55 49 0 51 60 80 94 45z m-306 -6 c28
-28 7 -78 -33 -78 -42 0 -59 44 -29 74 18 19 45 21 62 4z m-308 -13 c18 -22 8
-50 -19 -50 -32 0 -49 28 -32 49 17 20 35 20 51 1z m1215 -251 c24 -10 46 -60
39 -89 -8 -31 -49 -65 -80 -65 -39 0 -78 42 -78 85 0 58 58 92 119 69z m-292
-21 c33 -38 22 -94 -24 -113 -27 -11 -33 -11 -57 7 -33 25 -41 76 -16 104 22
24 76 25 97 2z m-309 -9 c19 -18 21 -65 4 -82 -7 -7 -26 -12 -43 -12 -38 0
-55 16 -55 51 0 34 24 59 55 59 13 0 31 -7 39 -16z m-306 -6 c28 -28 7 -78
-33 -78 -27 0 -45 18 -45 45 0 27 18 45 45 45 12 0 26 -5 33 -12z m-308 -13
c18 -22 8 -50 -19 -50 -32 0 -49 28 -32 49 17 20 35 20 51 1z m-302 -18 c4
-22 -27 -35 -38 -16 -10 15 7 42 24 36 6 -2 12 -11 14 -20z m920 -859 c7 -7
12 -27 12 -45 0 -26 -6 -36 -24 -44 -57 -26 -103 20 -77 77 8 18 18 24 44 24
18 0 38 -5 45 -12z m-310 -10 c7 -7 12 -21 12 -33 0 -12 -5 -26 -12 -33 -7 -7
-21 -12 -33 -12 -12 0 -26 5 -33 12 -7 7 -12 21 -12 33 0 12 5 26 12 33 7 7
21 12 33 12 12 0 26 -5 33 -12z m-300 -30 c2 -19 -2 -28 -18 -33 -37 -12 -64
27 -38 53 21 21 53 10 56 -20z m-310 -1 c4 -21 -27 -35 -38 -17 -12 19 0 42
19 38 9 -2 17 -11 19 -21z m-313 4 c3 -5 1 -12 -5 -16 -5 -3 -10 1 -10 9 0 18
6 21 15 7z m1540 -261 c38 -42 9 -110 -48 -110 -17 0 -39 7 -49 17 -22 20 -23
70 -1 95 22 24 75 23 98 -2z m-307 -2 c7 -7 12 -27 12 -45 0 -26 -6 -36 -24
-44 -57 -26 -103 20 -77 77 8 18 18 24 44 24 18 0 38 -5 45 -12z m-310 -10 c7
-7 12 -21 12 -33 0 -12 -5 -26 -12 -33 -7 -7 -21 -12 -33 -12 -12 0 -26 5 -33
12 -7 7 -12 21 -12 33 0 12 5 26 12 33 7 7 21 12 33 12 12 0 26 -5 33 -12z
m-300 -30 c2 -19 -2 -28 -18 -33 -37 -12 -64 27 -38 53 21 21 53 10 56 -20z
m-310 -1 c4 -21 -27 -35 -38 -17 -12 19 0 42 19 38 9 -2 17 -11 19 -21z m-313
4 c3 -5 1 -12 -5 -16 -5 -3 -10 1 -10 9 0 18 6 21 15 7z m1850 -251 c28 -28
26 -87 -4 -111 -30 -24 -92 -25 -114 -1 -72 80 41 187 118 112z m-311 -10 c40
-39 10 -110 -47 -110 -66 0 -93 78 -40 119 29 23 56 21 87 -9z m-306 -2 c7 -7
12 -27 12 -45 0 -26 -6 -36 -24 -44 -57 -26 -103 20 -77 77 8 18 18 24 44 24
18 0 38 -5 45 -12z m-310 -10 c7 -7 12 -21 12 -33 0 -12 -5 -26 -12 -33 -7 -7
-21 -12 -33 -12 -12 0 -26 5 -33 12 -7 7 -12 21 -12 33 0 12 5 26 12 33 7 7
21 12 33 12 12 0 26 -5 33 -12z m-918 -27 c0 -6 -4 -13 -10 -16 -5 -3 -10 1
-10 9 0 9 5 16 10 16 6 0 10 -4 10 -9z m300 0 c0 -6 -4 -13 -10 -16 -5 -3 -10
1 -10 9 0 9 5 16 10 16 6 0 10 -4 10 -9z m300 1 c0 -13 -12 -22 -22 -16 -10 6
-1 24 13 24 5 0 9 -4 9 -8z m1233 -242 c33 -26 41 -63 23 -99 -17 -32 -34 -41
-76 -41 -72 0 -102 88 -46 136 33 29 65 30 99 4z m-318 -2 c63 -28 41 -128
-28 -128 -66 0 -93 78 -41 119 31 24 35 25 69 9z m-287 -20 c17 -17 15 -64 -4
-82 -35 -36 -94 -9 -94 43 0 35 17 51 55 51 17 0 36 -5 43 -12z m-310 -34 c4
-25 -22 -49 -43 -40 -22 8 -29 34 -14 52 17 21 53 14 57 -12z m915 -244 c33
-26 41 -63 23 -99 -16 -31 -34 -41 -71 -41 -13 0 -31 3 -40 6 -24 10 -46 60
-39 89 8 31 49 65 79 65 12 0 34 -9 48 -20z m-320 -1 c29 -16 37 -28 37 -63 0
-39 -26 -66 -63 -66 -66 0 -93 78 -41 119 31 24 37 25 67 10z m-285 -22 c17
-13 15 -62 -4 -81 -37 -37 -98 -3 -92 50 5 46 56 62 96 31z m-313 -36 c0 -34
-30 -51 -51 -29 -25 24 -10 60 24 56 21 -2 27 -8 27 -27z m918 -241 c33 -26
41 -63 23 -99 -16 -31 -34 -41 -71 -41 -13 0 -31 3 -40 6 -24 10 -46 60 -39
89 8 31 49 65 79 65 12 0 34 -9 48 -20z m-318 -2 c63 -28 41 -128 -28 -128
-40 0 -67 26 -67 64 0 36 7 48 35 64 25 14 29 14 60 0z m-287 -21 c17 -13 15
-62 -4 -81 -37 -37 -98 -3 -92 50 5 46 56 62 96 31z m-310 -9 c17 -17 15 -53
-3 -68 -38 -31 -96 27 -65 65 15 18 51 20 68 3z m597 -270 c63 -28 41 -128
-28 -128 -40 0 -67 26 -67 64 0 36 7 48 35 64 25 14 29 14 60 0z m-287 -21
c17 -13 15 -62 -4 -81 -37 -37 -98 -3 -92 50 5 46 56 62 96 31z m-310 -9 c17
-17 15 -53 -3 -68 -38 -31 -96 27 -65 65 15 18 51 20 68 3z m-303 -27 c0 -34
-30 -51 -51 -29 -25 24 -10 60 24 56 21 -2 27 -8 27 -27z m-308 3 c8 -22 -18
-37 -36 -20 -7 8 -10 19 -7 25 10 16 36 13 43 -5z m911 -260 c41 -28 18 -104
-31 -104 -53 0 -77 75 -35 104 12 9 27 16 33 16 6 0 21 -7 33 -16z m-300 -16
c32 -32 -4 -87 -48 -73 -25 8 -37 50 -20 70 15 18 51 20 68 3z m-303 -27 c0
-34 -30 -51 -51 -29 -25 24 -10 60 24 56 21 -2 27 -8 27 -27z"/>
</g>
</svg>
