<svg class="sm:h-[32px] h-[24px]" viewBox="0 0 139 32" xmlns="http://www.w3.org/2000/svg"><path fill-rule="evenodd" clip-rule="evenodd" d="M4.2 0l16.3 16L4 32l-4-4 12.4-12L.2 4l4-4zm12.3 0l4 4-4 3.9-4-3.9 4-4zm0 31.8l-4-3.9 4-3.9 4 3.9-4 3.9zM8.3 16l-4-4h-.1L.3 16l3.9 3.8h.1l4-3.8zm34.9 5.2v4h-11V6.8h4.2v14.4h6.8zm11.4 4h4V12l-4 .1v1.2c-.9-1-2.2-1.6-4-1.6-3.5 0-6.4 3-6.4 7 0 3.9 2.9 6.9 6.4 6.9 1.8 0 3.1-.6 4-1.6v1.2zm-3.2-9.8c1.9 0 3.2 1.3 3.2 3.2 0 2-1.3 3.3-3.2 3.3-1.8 0-3.2-1.3-3.2-3.3 0-1.9 1.4-3.2 3.2-3.2zm15.3.5v4.6c0 1.1 1 1.2 2.8 1.1v3.6c-5.3.5-6.8-1-6.8-4.7v-4.6h-2.2V12h2.2V9.6l4-1.2V12h2.8v3.9h-2.8zm11.4-4.2c-4.1 0-7.1 3-7.1 6.9 0 4 3 7 7.1 7 2.7 0 4.9-1.4 6.1-3.4l-3.5-2c-.4.9-1.4 1.5-2.6 1.5-1.7 0-3.1-1.2-3.1-3.1 0-1.8 1.4-3 3.1-3 1.2 0 2.1.6 2.6 1.4l3.5-2c-1.2-2-3.4-3.3-6.1-3.3zm20.7 5.5v8h-4v-7.5c0-1.6-1.1-2.4-2.4-2.4-1.4 0-2.4.9-2.4 2.7v7.2h-4V6.8h4v6.5c.7-.9 2-1.6 3.8-1.6 2.7 0 5 1.9 5 5.5zm10.9 8c3.3 0 6.1-2.2 6.1-5.4 0-.8-.2-1.6-.6-2.3-.4-.8-1-1.4-1.7-1.8.5-.5.9-1 1.2-1.7.3-.6.4-1.2.4-2 0-3-2.6-5.2-5.9-5.2h-7.3v18.4h7.8zM106.1 14v-3.2h3.1c1 0 1.6.7 1.6 1.6 0 1-.6 1.6-1.6 1.6h-3.1zm3.6 3.8c1.1 0 1.8.7 1.8 1.7s-.7 1.8-1.8 1.8h-3.6v-3.5h3.6zm8-9.2c0-.5.1-.9.3-1.3.3-.4.7-.7 1.1-.9.5-.2.9-.2 1.4-.1.5.1.9.3 1.3.7.3.2.5.7.6 1.1.1.5.1.9-.1 1.4-.2.5-.5.8-.9 1-.4.3-.9.5-1.4.5-.6 0-1.2-.3-1.6-.8-.4-.4-.7-1-.7-1.6zm.3 3.4h4v13.2h-4V12zm13.3-.3c-4 0-7.1 3-7.1 6.9 0 4 3.1 7 7.1 7 3.9 0 7.1-3 7.1-7 0-3.9-3.2-6.9-7.1-6.9zm0 3.9c1.7 0 3.1 1.2 3.1 3 0 1.9-1.4 3.1-3.1 3.1-1.8 0-3.1-1.2-3.1-3.1 0-1.8 1.3-3 3.1-3z" fill="currentcolor"></path></svg>