<svg version="1.1" id="Layer_1" xmlns="http://www.w3.org/2000/svg" xmlns:xlink="http://www.w3.org/1999/xlink" x="0px" y="0px" viewBox="0 0 92 23" style="enable-background:new 0 0 92 23;" xml:space="preserve" class="fill-current">
<g>
	<path class="st0" d="M49,10.4c0.9,0,1.6,0.5,2,0.9l0.1,0.1l1-1l-0.1-0.1C51.4,9.7,50.4,9,49,9c-2.3,0-4,1.7-4,4s1.7,4,4,4   c1.5,0,2.4-0.7,3-1.2l0.1-0.1l-1-1L51,14.7c-0.4,0.4-1.1,0.9-2,0.9c-1.4,0-2.5-1.1-2.5-2.6C46.5,11.5,47.6,10.4,49,10.4z"></path>
	<path class="st0" d="M67.6,9.9C66.9,9.3,66,9,65,9c-2.3,0-4,1.7-4,4s1.7,4,4,4v0c0.9,0,1.8-0.3,2.6-0.9v0.8H69V9.1h-1.4V9.9z    M65,15.6c-1.4,0-2.5-1.1-2.5-2.6c0-1.5,1.1-2.6,2.5-2.6s2.5,1.1,2.5,2.6C67.5,14.5,66.4,15.6,65,15.6z"></path>
	<path class="st0" d="M56.9,9.1c-0.7,0-1.7,0.2-2.3,0.8V6H53v11h1.5l0-5c0.3-1,1-1.5,2-1.5c1.1,0,1.9,0.7,1.9,1.8V17H60v-4.7   C60,10.4,58.7,9.1,56.9,9.1z"></path>
	<path class="st0" d="M79.2,9c-0.6,0-1.7,0.2-2.5,1.2C76.2,9.4,75.4,9,74.4,9c-0.5,0-1.3,0.1-2,0.8V9.1H71V17h1.4l0-5.2   c0.3-0.9,0.9-1.4,1.7-1.4c1,0,1.6,0.7,1.6,1.9V17h1.4v-4.8c0-0.1,0-0.2,0-0.3c0.3-1,0.9-1.5,1.7-1.5c1,0,1.6,0.7,1.6,1.9V17H82   v-4.8C82,10.3,80.9,9,79.2,9z"></path>
	<path class="st0" d="M31.2,6H28v11h1.6v-4.2h1.6c2.3,0,3.8-1.3,3.8-3.4S33.5,6,31.2,6z M31.1,11.3h-1.5V7.5h1.5   c1.5,0,2.3,0.7,2.3,1.9C33.4,10.6,32.6,11.3,31.1,11.3z"></path>
	<path class="st0" d="M41.6,9.9C40.9,9.3,40,9,39,9c-2.3,0-4,1.7-4,4s1.7,4,4,4v0c0.9,0,1.8-0.3,2.6-0.9v0.8H43V9.1h-1.4V9.9z    M39,15.6c-1.4,0-2.5-1.1-2.5-2.6c0-1.5,1.1-2.6,2.5-2.6c1.4,0,2.5,1.1,2.5,2.6C41.5,14.5,40.4,15.6,39,15.6z"></path>
	<path class="st0" d="M90.2,9.3V10c-0.7-0.6-1.7-0.9-2.6-0.9c-2.3,0-4.1,1.7-4.1,3.9c0,2.2,1.8,3.9,4.1,3.9v0c1,0,1.9-0.3,2.6-0.9   v0.8h1.5V9.3H90.2z M87.5,15.5c-1.4,0-2.5-1.1-2.5-2.5c0-1.4,1.1-2.5,2.5-2.5v0c1.4,0,2.5,1.1,2.5,2.5C90.1,14.4,89,15.5,87.5,15.5   z"></path>
	<path class="st1" d="M19.3,5.4l-8.7-5.1C10.2,0,9.7,0,9.3,0.3L0.6,5.4C0.2,5.6,0,6,0,6.5v10.2c0,0.5,0.2,0.9,0.6,1.1l8.3,4.9   c0.6,0.4,1.4,0.4,2,0l8.3-4.9c0.4-0.2,0.6-0.7,0.6-1.1V6.5C19.9,6,19.7,5.6,19.3,5.4z M14.1,4.4c0.6,1.3,0.6,2.9,0,4.2   c-1.6,0.1-3.1,0.8-4.1,2c-0.4-1.2-0.3-2.6,0.3-3.8c0.8-1.4,2.1-2.3,3.7-2.4L14.1,4.4z M9.7,1.9c1.5-0.2,2.9,0.4,3.9,1.6   c-1.4,0.2-2.7,1-3.5,2.1C9.2,4.5,7.9,3.8,6.6,3.5l0,0C7.3,2.6,8.5,2,9.7,1.9z M6,4.4c1.4,0.1,2.7,0.9,3.5,2.1   C8.7,8,8.6,9.6,9.2,11.1c-1.2-0.3-2.3-1.1-3-2.2C5.4,7.5,5.3,5.8,6,4.4z M9.1,12.1c-0.8,1-2.1,1.6-3.4,1.6c-1.6,0-3.1-0.7-3.9-2   l0,0c0.8-1.2,2.2-2,3.7-2.1C6.3,10.9,7.6,11.8,9.1,12.1z M1.5,7.2c0.6-1.5,1.9-2.5,3.4-2.7l0,0C4.4,5.8,4.4,7.3,5,8.6   c-1.4,0.2-2.7,0.9-3.6,2C0.9,9.5,1,8.3,1.5,7.2z M4.8,18.8c-1.1-0.2-2.2-0.9-2.9-1.9C1,15.6,0.8,14,1.3,12.6l0,0   c0.9,1.1,2.2,1.9,3.6,2C4.3,16,4.3,17.4,4.8,18.8z M5.9,14.7c1.6-0.1,3-0.8,4-2c0.4,1.2,0.3,2.6-0.3,3.8c-0.8,1.4-2.1,2.3-3.7,2.4   C5.2,17.5,5.2,16,5.9,14.7z M10.4,21.4c-1.5,0.2-3-0.4-4-1.6c1.4-0.2,2.6-1,3.5-2.1c0.9,1.1,2.1,1.9,3.5,2.2   C12.7,20.7,11.6,21.3,10.4,21.4z M14.1,18.9L14.1,18.9c-1.5-0.1-2.8-0.9-3.6-2.2l0,0c0.7-1.4,0.8-3,0.3-4.5c1.3,0.2,2.4,1,3.1,2.2   C14.7,15.8,14.7,17.5,14.1,18.9z M10.8,11.3C10.8,11.3,10.8,11.3,10.8,11.3L10.8,11.3C10.8,11.3,10.8,11.3,10.8,11.3   c0.8-1,2.1-1.6,3.4-1.6c1.6-0.1,3.1,0.7,3.9,2c0,0,0,0,0,0c-0.8,1.2-2.1,2-3.6,2.1C13.7,12.4,12.3,11.5,10.8,11.3z M18.5,16.1   c-0.6,1.5-1.9,2.5-3.4,2.7c0.5-1.3,0.5-2.8-0.1-4.1c1.4-0.2,2.7-0.9,3.6-2C19,13.8,19,15,18.5,16.1z M18.6,10.7   c-0.9-1.1-2.1-1.8-3.5-2c0.5-1.3,0.6-2.8,0.1-4.2c1.1,0.2,2.1,0.9,2.8,1.8C18.9,7.6,19.1,9.2,18.6,10.7z"></path>
</g>
</svg>