<svg width="113" height="32" viewBox="0 0 113 32" fill="none" xmlns="http://www.w3.org/2000/svg">
<path d="M11.4425 25.3675L7.86982 20.2459C7.71992 20.2625 7.49507 20.2709 7.19527 20.2709H3.24786V25.3675H0V7.87903H7.19527C8.71093 7.87903 10.0267 8.12886 11.1427 8.62854C12.2753 9.12821 13.1414 9.8444 13.741 10.7771C14.3406 11.7098 14.6404 12.8174 14.6404 14.0999C14.6404 15.4157 14.3156 16.5483 13.666 17.4977C13.0331 18.4471 12.117 19.1549 10.9178 19.6213L14.9402 25.3675H11.4425ZM11.3675 14.0999C11.3675 12.984 11.0011 12.1262 10.2682 11.5266C9.53539 10.927 8.4611 10.6272 7.04536 10.6272H3.24786V17.5976H7.04536C8.4611 17.5976 9.53539 17.2978 10.2682 16.6982C11.0011 16.082 11.3675 15.2159 11.3675 14.0999Z" fill="#2B3A67"/>
<path d="M29.7915 25.6174C27.3765 25.6174 25.4944 24.9428 24.1452 23.5937C22.7961 22.2279 22.1216 20.2792 22.1216 17.7475V7.87903H25.3694V17.6226C25.3694 21.0537 26.8518 22.7692 29.8165 22.7692C32.7646 22.7692 34.2386 21.0537 34.2386 17.6226V7.87903H37.4365V17.7475C37.4365 20.2792 36.7619 22.2279 35.4128 23.5937C34.0804 24.9428 32.2066 25.6174 29.7915 25.6174Z" fill="#2B3A67"/>
<path d="M61.5222 7.87903V25.3675H58.849L49.2053 13.5253V25.3675H45.9824V7.87903H48.6557L58.2993 19.7212V7.87903H61.5222Z" fill="#2B3A67"/>
<path d="M96.8415 25.3675L93.2189 19.9461L89.6463 25.3675H84L90.3708 16.5233L84.2748 7.87903H89.8461L93.3438 12.9257L96.7916 7.87903H102.138L96.0421 16.3235L102.538 25.3675H96.8415Z" fill="#2B3A67"/>
<path d="M107.453 32V30.5299H111.248V1.47008H107.453V0H112.957V32H107.453Z" fill="#FE794F"/>
<path d="M72.5 0H78.0043V1.47009H74.2094V30.5299H78.0043V32H72.5V0Z" fill="#FE794F"/>
</svg>
