<svg
    xmlns="http://www.w3.org/2000/svg"
    xml:space="preserve"
    y="0"
    x="0"
    id="Ebene_3"
    version="1.1"
    viewBox="-34.05 -23.15 295.1 138.9"
    width="200"
    height="100"
>
    <style id="style11570" type="text/css">
    .st0 {
        fill: #808080;
    }
    </style>
    <g transform="translate(-35 -39.7)" id="g11578">
    <path
        id="path11572"
        d="M151.7 130.8h-31.4v-17.6h28.9c7.5 0 12.8-2.2 12.8-9.7 0-7.3-5.2-9.4-12.8-9.4h-4.6c-16.9-.7-27.7-9.6-27.7-27.3 0-17.8 11.4-27 29.2-27h30.8v17.6h-28.8c-7.5 0-12.5 2.2-12.5 9.5s4.9 9.7 12.5 9.7h5.1c16.9.7 27.7 9 27.7 27.1 0 17.2-11.4 27.1-29.2 27.1z"
        class="st0"
    />
    <path
        id="path11574"
        d="M103.8 99.6V39.7H81.5v59.4c0 8.4-4.8 13.3-12.2 13.3-7.4 0-12-4.8-12-13.3V39.7H35v59.9c0 19.9 15.4 32.6 34.3 32.6 18.8 0 34.5-12.7 34.5-32.6z"
        class="st0"
    />
    <path
        id="path11576"
        d="M262 99.7V39.8h-22.3v59.4c0 8.4-4.8 13.3-12.2 13.3-7.4 0-12-4.8-12-13.3V39.8h-22.3v59.9c0 19.9 15.4 32.6 34.3 32.6 18.8 0 34.5-12.7 34.5-32.6z"
        class="st0"
    />
    </g>
</svg>